<?xml version="1.0" encoding="iso-8859-1"?>
<!-- Generator: Adobe Illustrator 19.0.0, SVG Export Plug-In . SVG Version: 6.00 Build 0)  -->
<svg version="1.1" id="Layer_1" xmlns="http://www.w3.org/2000/svg" xmlns:xlink="http://www.w3.org/1999/xlink" x="0px" y="0px"
	 viewBox="0 0 512 512" style="enable-background:new 0 0 512 512;" xml:space="preserve">
<path style="fill:#FFFFFF;" d="M503.742,385.376V126.624c0-19.763-16.022-35.785-35.785-35.785H44.043
	c-19.763,0-35.785,16.022-35.785,35.785v258.753c0,19.763,16.022,35.785,35.785,35.785h423.914
	C487.72,421.161,503.742,405.14,503.742,385.376z"/>
<g>
	<path style="fill:#ED1F34;" d="M503.742,384.462v1.964c0,19.183-15.552,34.734-34.734,34.734H42.993
		c-19.183,0-34.735-15.552-34.735-34.734v-1.964H503.742z"/>
	<rect x="8.258" y="311.054" style="fill:#ED1F34;" width="495.484" height="36.699"/>
	<rect x="225.908" y="237.645" style="fill:#ED1F34;" width="277.834" height="36.71"/>
	<rect x="225.908" y="164.247" style="fill:#ED1F34;" width="277.834" height="36.699"/>
	<path style="fill:#ED1F34;" d="M225.908,90.839v36.699h277.834v-6.177c0-16.856-13.665-30.522-30.522-30.522H225.908z"/>
</g>
<path style="fill:#164FCE;" d="M8.258,124.83v149.525h217.65V90.839H42.249C23.477,90.839,8.258,106.058,8.258,124.83z"/>
<g>
	<circle style="fill:#FFFFFF;" cx="51.6" cy="230.158" r="5.946"/>
	<circle style="fill:#FFFFFF;" cx="84.342" cy="230.158" r="5.946"/>
	<circle style="fill:#FFFFFF;" cx="117.077" cy="230.158" r="5.946"/>
	<circle style="fill:#FFFFFF;" cx="149.823" cy="230.158" r="5.946"/>
	<circle style="fill:#FFFFFF;" cx="182.569" cy="230.158" r="5.946"/>
	<circle style="fill:#FFFFFF;" cx="35.229" cy="246.024" r="5.946"/>
	<circle style="fill:#FFFFFF;" cx="67.97" cy="246.024" r="5.946"/>
	<circle style="fill:#FFFFFF;" cx="100.715" cy="246.024" r="5.946"/>
	<circle style="fill:#FFFFFF;" cx="133.45" cy="246.024" r="5.946"/>
	<circle style="fill:#FFFFFF;" cx="166.196" cy="246.024" r="5.946"/>
	<circle style="fill:#FFFFFF;" cx="198.942" cy="246.024" r="5.946"/>
	<circle style="fill:#FFFFFF;" cx="35.229" cy="214.302" r="5.946"/>
	<circle style="fill:#FFFFFF;" cx="67.97" cy="214.302" r="5.946"/>
	<circle style="fill:#FFFFFF;" cx="100.715" cy="214.302" r="5.946"/>
	<circle style="fill:#FFFFFF;" cx="133.45" cy="214.302" r="5.946"/>
	<circle style="fill:#FFFFFF;" cx="166.196" cy="214.302" r="5.946"/>
	<circle style="fill:#FFFFFF;" cx="198.942" cy="214.302" r="5.946"/>
	<circle style="fill:#FFFFFF;" cx="51.6" cy="198.458" r="5.946"/>
	<circle style="fill:#FFFFFF;" cx="84.342" cy="198.458" r="5.946"/>
	<circle style="fill:#FFFFFF;" cx="117.077" cy="198.458" r="5.946"/>
	<circle style="fill:#FFFFFF;" cx="149.823" cy="198.458" r="5.946"/>
	<circle style="fill:#FFFFFF;" cx="182.569" cy="198.458" r="5.946"/>
	<circle style="fill:#FFFFFF;" cx="35.229" cy="182.602" r="5.946"/>
	<circle style="fill:#FFFFFF;" cx="67.97" cy="182.602" r="5.946"/>
	<circle style="fill:#FFFFFF;" cx="100.715" cy="182.602" r="5.946"/>
	<circle style="fill:#FFFFFF;" cx="133.45" cy="182.602" r="5.946"/>
	<circle style="fill:#FFFFFF;" cx="166.196" cy="182.602" r="5.946"/>
	<circle style="fill:#FFFFFF;" cx="198.942" cy="182.602" r="5.946"/>
	<circle style="fill:#FFFFFF;" cx="51.6" cy="166.747" r="5.946"/>
	<circle style="fill:#FFFFFF;" cx="84.342" cy="166.747" r="5.946"/>
	<circle style="fill:#FFFFFF;" cx="117.077" cy="166.747" r="5.946"/>
	<circle style="fill:#FFFFFF;" cx="149.823" cy="166.747" r="5.946"/>
	<circle style="fill:#FFFFFF;" cx="182.569" cy="166.747" r="5.946"/>
	<circle style="fill:#FFFFFF;" cx="35.229" cy="150.88" r="5.946"/>
	<circle style="fill:#FFFFFF;" cx="67.97" cy="150.88" r="5.946"/>
	<circle style="fill:#FFFFFF;" cx="100.715" cy="150.88" r="5.946"/>
	<circle style="fill:#FFFFFF;" cx="133.45" cy="150.88" r="5.946"/>
	<circle style="fill:#FFFFFF;" cx="166.196" cy="150.88" r="5.946"/>
	<circle style="fill:#FFFFFF;" cx="198.942" cy="150.88" r="5.946"/>
	<circle style="fill:#FFFFFF;" cx="51.6" cy="135.036" r="5.946"/>
	<circle style="fill:#FFFFFF;" cx="84.342" cy="135.036" r="5.946"/>
	<circle style="fill:#FFFFFF;" cx="117.077" cy="135.036" r="5.946"/>
	<circle style="fill:#FFFFFF;" cx="149.823" cy="135.036" r="5.946"/>
	<circle style="fill:#FFFFFF;" cx="182.569" cy="135.036" r="5.946"/>
	<circle style="fill:#FFFFFF;" cx="35.229" cy="119.169" r="5.946"/>
	<circle style="fill:#FFFFFF;" cx="67.97" cy="119.169" r="5.946"/>
	<circle style="fill:#FFFFFF;" cx="100.715" cy="119.169" r="5.946"/>
	<circle style="fill:#FFFFFF;" cx="133.45" cy="119.169" r="5.946"/>
	<circle style="fill:#FFFFFF;" cx="166.196" cy="119.169" r="5.946"/>
	<circle style="fill:#FFFFFF;" cx="198.942" cy="119.169" r="5.946"/>
</g>
<path style="fill:#121B21;" d="M468.324,82.581H43.676C19.593,82.581,0,102.174,0,126.257v259.486
	c0,24.083,19.593,43.676,43.676,43.676h424.648c24.083,0,43.675-19.594,43.675-43.676V126.257
	C512,102.174,492.407,82.581,468.324,82.581z M16.516,376.204v-20.194h388.129c4.561,0,8.258-3.696,8.258-8.258
	s-3.697-8.258-8.258-8.258H16.516v-20.183h478.968v20.183h-57.806c-4.561,0-8.258,3.696-8.258,8.258s3.697,8.258,8.258,8.258h57.806
	v20.194L16.516,376.204L16.516,376.204z M296.949,209.204h198.535v20.183H234.166v-20.183h29.751c4.561,0,8.258-3.696,8.258-8.258
	c0-4.562-3.697-8.258-8.258-8.258h-29.751v-20.183h261.318v20.183H296.949c-4.561,0-8.258,3.696-8.258,8.258
	C288.691,205.508,292.388,209.204,296.949,209.204z M234.166,155.989v-20.194h261.318v20.194H234.166z M234.166,245.903h261.318
	v20.194H234.166V245.903z M495.484,282.613v20.183H16.516v-20.183H495.484z M494.571,119.279H234.166V99.097h234.159
	C480.888,99.097,491.483,107.674,494.571,119.279z M43.676,99.097H217.65v167H16.516v-139.84
	C16.516,111.28,28.7,99.097,43.676,99.097z M468.324,412.903H43.676c-12.564,0-23.159-8.577-26.246-20.183h477.142
	C491.483,404.326,480.888,412.903,468.324,412.903z"/>
<g>
</g>
<g>
</g>
<g>
</g>
<g>
</g>
<g>
</g>
<g>
</g>
<g>
</g>
<g>
</g>
<g>
</g>
<g>
</g>
<g>
</g>
<g>
</g>
<g>
</g>
<g>
</g>
<g>
</g>
</svg>
