<?xml version="1.0" encoding="iso-8859-1"?>
<!-- Generator: Adobe Illustrator 19.0.0, SVG Export Plug-In . SVG Version: 6.00 Build 0)  -->
<svg version="1.1" id="Layer_1" xmlns="http://www.w3.org/2000/svg" xmlns:xlink="http://www.w3.org/1999/xlink" x="0px" y="0px"
	 viewBox="0 0 512 512" style="enable-background:new 0 0 512 512;" xml:space="preserve">
<path style="fill:#259245;" d="M503.742,126.073v259.854c0,19.459-15.775,35.234-35.234,35.234H43.492
	c-19.459,0-35.234-15.775-35.234-35.234V126.073c0-19.459,15.775-35.234,35.234-35.234h425.015
	C487.967,90.839,503.742,106.614,503.742,126.073z"/>
<polygon style="fill:#FFE000;" points="256,374.346 52.301,256 256,137.654 459.699,256 "/>
<circle style="fill:#103B9B;" cx="256" cy="256" r="67.199"/>
<path style="fill:#FFFFFF;" d="M316.031,294.63c-3.06,0-5.999-1.708-7.43-4.642c-9.946-20.411-27.004-36.404-48.031-45.033
	c-21.025-8.628-44.396-9.231-65.809-1.696c-4.302,1.508-9.017-0.748-10.531-5.05c-1.513-4.302,0.748-9.017,5.05-10.531
	c25.238-8.88,52.784-8.171,77.562,1.996c24.781,10.171,44.884,29.02,56.607,53.076c1.997,4.1,0.294,9.044-3.805,11.042
	C318.476,294.361,317.244,294.63,316.031,294.63z"/>
<g>
	<path style="fill:#121B21;" d="M463.848,248.86L260.149,130.514c-2.566-1.491-5.731-1.491-8.297,0L48.153,248.86
		c-2.545,1.478-4.11,4.198-4.11,7.14c0,2.942,1.566,5.663,4.109,7.14l203.699,118.346c1.283,0.745,2.715,1.118,4.149,1.118
		s2.865-0.372,4.149-1.118l142.96-83.059c3.944-2.291,5.283-7.346,2.993-11.289c-2.294-3.945-7.347-5.283-11.289-2.993L256,364.796
		L68.74,256L256,147.204L443.26,256l-19.887,11.554c-3.944,2.291-5.283,7.346-2.993,11.289c2.291,3.944,7.345,5.282,11.289,2.993
		l32.177-18.695c2.543-1.479,4.109-4.198,4.109-7.14C467.956,253.058,466.391,250.337,463.848,248.86z"/>
	<path style="fill:#121B21;" d="M180.539,256c0,41.61,33.851,75.461,75.461,75.461S331.461,297.61,331.461,256
		S297.61,180.539,256,180.539S180.539,214.39,180.539,256z M314.945,256c0,32.503-26.443,58.945-58.945,58.945
		S197.055,288.502,197.055,256s26.443-58.945,58.945-58.945S314.945,223.497,314.945,256z"/>
	<path style="fill:#121B21;" d="M468.324,82.581H43.676C19.594,82.581,0,102.174,0,126.257v259.486
		c0,24.083,19.594,43.676,43.676,43.676h424.647c24.083,0,43.676-19.594,43.676-43.676V126.257
		C512,102.174,492.406,82.581,468.324,82.581z M495.484,385.743c0,14.977-12.183,27.16-27.16,27.16H43.676
		c-14.977,0-27.16-12.183-27.16-27.16V126.257c0-14.977,12.183-27.16,27.16-27.16h424.647c14.977,0,27.16,12.183,27.16,27.16
		V385.743z"/>
</g>
<g>
</g>
<g>
</g>
<g>
</g>
<g>
</g>
<g>
</g>
<g>
</g>
<g>
</g>
<g>
</g>
<g>
</g>
<g>
</g>
<g>
</g>
<g>
</g>
<g>
</g>
<g>
</g>
<g>
</g>
</svg>
